<svg width="1300" height="905" viewBox="0 0 1300 905" fill="none" xmlns="http://www.w3.org/2000/svg">
<path d="M273.431 74.5C273.431 110.122 244.553 139 208.931 139C173.308 139 144.431 110.122 144.431 74.5C144.431 38.8776 173.308 10 208.931 10C244.553 10 273.431 38.8776 273.431 74.5Z" fill="#AAD698" fill-opacity="0.4"/>
<path d="M273.431 74.5C273.431 110.122 244.553 139 208.931 139C173.308 139 144.431 110.122 144.431 74.5C144.431 38.8776 173.308 10 208.931 10C244.553 10 273.431 38.8776 273.431 74.5Z" fill="#AAD698" fill-opacity="0.4"/>
<path d="M273.431 74.5C273.431 110.122 244.553 139 208.931 139C173.308 139 144.431 110.122 144.431 74.5C144.431 38.8776 173.308 10 208.931 10C244.553 10 273.431 38.8776 273.431 74.5Z" fill="#AAD698" fill-opacity="0.4"/>
<path d="M1089.43 782.5C1089.43 818.122 1060.55 847 1024.93 847C989.307 847 960.429 818.122 960.429 782.5C960.429 746.878 989.307 718 1024.93 718C1060.55 718 1089.43 746.878 1089.43 782.5Z" fill="#AAD698" fill-opacity="0.4"/>
<path d="M1089.43 782.5C1089.43 818.122 1060.55 847 1024.93 847C989.307 847 960.429 818.122 960.429 782.5C960.429 746.878 989.307 718 1024.93 718C1060.55 718 1089.43 746.878 1089.43 782.5Z" fill="#AAD698" fill-opacity="0.4"/>
<path d="M1089.43 782.5C1089.43 818.122 1060.55 847 1024.93 847C989.307 847 960.429 818.122 960.429 782.5C960.429 746.878 989.307 718 1024.93 718C1060.55 718 1089.43 746.878 1089.43 782.5Z" fill="#AAD698" fill-opacity="0.4"/>
<path d="M1113.43 654.5C1113.43 671.345 1099.77 685 1082.93 685C1066.08 685 1052.43 671.345 1052.43 654.5C1052.43 637.655 1066.08 624 1082.93 624C1099.77 624 1113.43 637.655 1113.43 654.5Z" fill="#AAD698" fill-opacity="0.4"/>
<path d="M1113.43 654.5C1113.43 671.345 1099.77 685 1082.93 685C1066.08 685 1052.43 671.345 1052.43 654.5C1052.43 637.655 1066.08 624 1082.93 624C1099.77 624 1113.43 637.655 1113.43 654.5Z" fill="#AAD698" fill-opacity="0.4"/>
<path d="M1113.43 654.5C1113.43 671.345 1099.77 685 1082.93 685C1066.08 685 1052.43 671.345 1052.43 654.5C1052.43 637.655 1066.08 624 1082.93 624C1099.77 624 1113.43 637.655 1113.43 654.5Z" fill="#AAD698" fill-opacity="0.4"/>
<path d="M1255.43 30.5C1255.43 47.3447 1241.77 61 1224.93 61C1208.08 61 1194.43 47.3447 1194.43 30.5C1194.43 13.6553 1208.08 0 1224.93 0C1241.77 0 1255.43 13.6553 1255.43 30.5Z" fill="#AAD698" fill-opacity="0.4"/>
<path d="M1255.43 30.5C1255.43 47.3447 1241.77 61 1224.93 61C1208.08 61 1194.43 47.3447 1194.43 30.5C1194.43 13.6553 1208.08 0 1224.93 0C1241.77 0 1255.43 13.6553 1255.43 30.5Z" fill="#AAD698" fill-opacity="0.4"/>
<path d="M1255.43 30.5C1255.43 47.3447 1241.77 61 1224.93 61C1208.08 61 1194.43 47.3447 1194.43 30.5C1194.43 13.6553 1208.08 0 1224.93 0C1241.77 0 1255.43 13.6553 1255.43 30.5Z" fill="#AAD698" fill-opacity="0.4"/>
<path d="M64.536 681.088C64.235 698.759 49.6661 712.84 31.9956 712.539C14.325 712.238 0.244253 697.669 0.545278 679.998C0.846303 662.328 15.4151 648.247 33.0857 648.548C50.7562 648.849 64.837 663.418 64.536 681.088Z" fill="#AAD698" fill-opacity="0.4"/>
<path d="M64.536 681.088C64.235 698.759 49.6661 712.84 31.9956 712.539C14.325 712.238 0.244253 697.669 0.545278 679.998C0.846303 662.328 15.4151 648.247 33.0857 648.548C50.7562 648.849 64.837 663.418 64.536 681.088Z" fill="#AAD698" fill-opacity="0.4"/>
<path d="M64.536 681.088C64.235 698.759 49.6661 712.84 31.9956 712.539C14.325 712.238 0.244253 697.669 0.545278 679.998C0.846303 662.328 15.4151 648.247 33.0857 648.548C50.7562 648.849 64.837 663.418 64.536 681.088Z" fill="#AAD698" fill-opacity="0.4"/>
<path d="M1128.43 717.5C1128.43 726.06 1121.49 733 1112.93 733C1104.37 733 1097.43 726.06 1097.43 717.5C1097.43 708.94 1104.37 702 1112.93 702C1121.49 702 1128.43 708.94 1128.43 717.5Z" fill="#AAD698" fill-opacity="0.4"/>
<path d="M1128.43 717.5C1128.43 726.06 1121.49 733 1112.93 733C1104.37 733 1097.43 726.06 1097.43 717.5C1097.43 708.94 1104.37 702 1112.93 702C1121.49 702 1128.43 708.94 1128.43 717.5Z" fill="#AAD698" fill-opacity="0.4"/>
<path d="M1128.43 717.5C1128.43 726.06 1121.49 733 1112.93 733C1104.37 733 1097.43 726.06 1097.43 717.5C1097.43 708.94 1104.37 702 1112.93 702C1121.49 702 1128.43 708.94 1128.43 717.5Z" fill="#AAD698" fill-opacity="0.4"/>
<path d="M1255.43 99.5C1255.43 108.06 1248.49 115 1239.93 115C1231.37 115 1224.43 108.06 1224.43 99.5C1224.43 90.9396 1231.37 84 1239.93 84C1248.49 84 1255.43 90.9396 1255.43 99.5Z" fill="#AAD698" fill-opacity="0.4"/>
<path d="M1255.43 99.5C1255.43 108.06 1248.49 115 1239.93 115C1231.37 115 1224.43 108.06 1224.43 99.5C1224.43 90.9396 1231.37 84 1239.93 84C1248.49 84 1255.43 90.9396 1255.43 99.5Z" fill="#AAD698" fill-opacity="0.4"/>
<path d="M1255.43 99.5C1255.43 108.06 1248.49 115 1239.93 115C1231.37 115 1224.43 108.06 1224.43 99.5C1224.43 90.9396 1231.37 84 1239.93 84C1248.49 84 1255.43 90.9396 1255.43 99.5Z" fill="#AAD698" fill-opacity="0.4"/>
<path d="M98.6389 778.924C98.5213 785.827 92.8304 791.327 85.9278 791.209C79.0253 791.092 73.525 785.401 73.6426 778.498C73.7601 771.596 79.4511 766.095 86.3537 766.213C93.2562 766.33 98.7565 772.021 98.6389 778.924Z" fill="#AAD698" fill-opacity="0.4"/>
<path d="M98.6389 778.924C98.5213 785.827 92.8304 791.327 85.9278 791.209C79.0253 791.092 73.525 785.401 73.6426 778.498C73.7601 771.596 79.4511 766.095 86.3537 766.213C93.2562 766.33 98.7565 772.021 98.6389 778.924Z" fill="#AAD698" fill-opacity="0.4"/>
<path d="M98.6389 778.924C98.5213 785.827 92.8304 791.327 85.9278 791.209C79.0253 791.092 73.525 785.401 73.6426 778.498C73.7601 771.596 79.4511 766.095 86.3537 766.213C93.2562 766.33 98.7565 772.021 98.6389 778.924Z" fill="#AAD698" fill-opacity="0.4"/>
<path d="M1299.43 64C1299.43 75.0457 1290.48 84 1279.43 84C1268.38 84 1259.43 75.0457 1259.43 64C1259.43 52.9543 1268.38 44 1279.43 44C1290.48 44 1299.43 52.9543 1299.43 64Z" fill="#AAD698" fill-opacity="0.4"/>
<path d="M1299.43 64C1299.43 75.0457 1290.48 84 1279.43 84C1268.38 84 1259.43 75.0457 1259.43 64C1259.43 52.9543 1268.38 44 1279.43 44C1290.48 44 1299.43 52.9543 1299.43 64Z" fill="#AAD698" fill-opacity="0.4"/>
<path d="M1299.43 64C1299.43 75.0457 1290.48 84 1279.43 84C1268.38 84 1259.43 75.0457 1259.43 64C1259.43 52.9543 1268.38 44 1279.43 44C1290.48 44 1299.43 52.9543 1299.43 64Z" fill="#AAD698" fill-opacity="0.4"/>
<path d="M43.7644 758.678C43.5763 769.723 34.4707 778.523 23.4267 778.335C12.3826 778.147 3.58207 769.041 3.77021 757.997C3.95835 746.953 13.0639 738.153 24.108 738.341C35.1521 738.529 43.9525 747.634 43.7644 758.678Z" fill="#AAD698" fill-opacity="0.4"/>
<path d="M43.7644 758.678C43.5763 769.723 34.4707 778.523 23.4267 778.335C12.3826 778.147 3.58207 769.041 3.77021 757.997C3.95835 746.953 13.0639 738.153 24.108 738.341C35.1521 738.529 43.9525 747.634 43.7644 758.678Z" fill="#AAD698" fill-opacity="0.4"/>
<path d="M43.7644 758.678C43.5763 769.723 34.4707 778.523 23.4267 778.335C12.3826 778.147 3.58207 769.041 3.77021 757.997C3.95835 746.953 13.0639 738.153 24.108 738.341C35.1521 738.529 43.9525 747.634 43.7644 758.678Z" fill="#AAD698" fill-opacity="0.4"/>
<path d="M159.43 138.5C159.43 155.345 145.774 169 128.93 169C112.085 169 98.4297 155.345 98.4297 138.5C98.4297 121.655 112.085 108 128.93 108C145.774 108 159.43 121.655 159.43 138.5Z" fill="#AAD698" fill-opacity="0.4"/>
<path d="M159.43 138.5C159.43 155.345 145.774 169 128.93 169C112.085 169 98.4297 155.345 98.4297 138.5C98.4297 121.655 112.085 108 128.93 108C145.774 108 159.43 121.655 159.43 138.5Z" fill="#AAD698" fill-opacity="0.4"/>
<path d="M159.43 138.5C159.43 155.345 145.774 169 128.93 169C112.085 169 98.4297 155.345 98.4297 138.5C98.4297 121.655 112.085 108 128.93 108C145.774 108 159.43 121.655 159.43 138.5Z" fill="#AAD698" fill-opacity="0.4"/>
<circle cx="1032.93" cy="487.5" r="82.5" fill="#33691E" fill-opacity="0.2"/>
<circle cx="1007.93" cy="380.5" r="120.5" fill="#28B61B" fill-opacity="0.1"/>
<circle cx="219.993" cy="757.563" r="113.5" transform="rotate(-20.9359 219.993 757.563)" fill="#52BC29" fill-opacity="0.4"/>
<circle cx="303.467" cy="690.295" r="54.5" transform="rotate(-20.9359 303.467 690.295)" fill="#33691E" fill-opacity="0.4"/>
<ellipse cx="382.93" cy="110" rx="79.5" ry="79" fill="#28B61B" fill-opacity="0.2"/>
</svg>
